<?xml version="1.0" encoding="utf-8"?>
<!-- Generator: Adobe Illustrator 22.0.1, SVG Export Plug-In . SVG Version: 6.00 Build 0)  -->
<svg version="1.1" id="Layer_1" xmlns="http://www.w3.org/2000/svg" xmlns:xlink="http://www.w3.org/1999/xlink" x="0px" y="0px"
	 viewBox="0 0 810.5 300.3" style="enable-background:new 0 0 810.5 300.3;" xml:space="preserve">
<style type="text/css">
	.st0{fill:#286293;}
	.st1{fill:url(#SVGID_1_);}
	.st2{fill-rule:evenodd;clip-rule:evenodd;fill:#FFFFFF;}
	.st3{fill:#FFFFFF;}
</style>
<g>
	<path class="st0" d="M51.7,253.2c0,2.8-0.4,5.6-1.1,8.4c-0.7,2.8-2.2,5.3-4.3,7.6c-2.1,2.3-5,4.1-8.8,5.5
		c-3.7,1.4-8.6,2.1-14.5,2.1c-4,0-7.6-0.1-10.6-0.4c-3-0.2-5.5-0.5-7.4-0.8c-1.1-0.2-2-0.4-2.5-0.7c-0.5-0.3-0.8-0.9-0.8-1.8v-0.5
		c0-1,0.3-1.6,0.9-1.8c0.6-0.2,1.2-0.3,1.9-0.2c1,0.2,2.2,0.3,3.6,0.4c1.4,0.1,2.9,0.2,4.6,0.4c1.6,0.1,3.4,0.2,5.1,0.3
		c1.8,0.1,3.5,0.1,5.2,0.1c4.7,0,8.5-0.5,11.5-1.4c3-0.9,5.3-2.3,7-3.9c1.7-1.7,2.9-3.6,3.5-5.9c0.7-2.2,1-4.6,1-7.1
		c0-2.3-0.3-4.3-1-5.9c-0.7-1.6-1.8-3.2-3.3-4.7c-1.5-1.5-3.5-3.1-5.8-4.6c-2.4-1.6-5.3-3.4-8.7-5.5l-7.8-4.8
		c-2.8-1.7-5.4-3.4-7.7-5.1c-2.4-1.6-4.4-3.4-6.2-5.4c-1.7-1.9-3.1-4-4-6.3C0.5,208.6,0,206,0,203c0-3.8,0.8-6.9,2.5-9.4
		c1.6-2.5,3.8-4.4,6.5-5.9c2.7-1.4,5.8-2.4,9.2-3c3.4-0.6,7-0.9,10.6-0.9c1.3,0,2.8,0,4.4,0.1c1.6,0.1,3.2,0.2,4.8,0.2
		c1.6,0.1,3.1,0.2,4.5,0.4c1.4,0.2,2.5,0.3,3.4,0.4c1.2,0.2,2.1,0.4,2.6,0.7c0.5,0.3,0.7,0.9,0.7,1.7v0.6c0,0.9-0.3,1.5-1,1.8
		c-0.7,0.3-1.6,0.3-2.8,0.2c-0.2,0-1-0.1-2.3-0.2c-1.3-0.1-2.8-0.2-4.5-0.4c-1.7-0.1-3.4-0.2-5.2-0.3c-1.8-0.1-3.4-0.1-4.7-0.1
		c-8.2,0-14.2,1.2-17.8,3.5c-3.6,2.3-5.4,5.8-5.4,10.4c0,2.2,0.3,4.2,1,5.9c0.7,1.7,1.7,3.3,3.1,4.8c1.4,1.5,3.1,3,5.2,4.5
		c2.1,1.5,4.5,3,7.2,4.7l7.9,4.8c3.6,2.2,6.8,4.3,9.5,6.1c2.7,1.8,5,3.8,6.8,5.7c1.8,2,3.2,4.1,4.1,6.3
		C51.2,247.9,51.7,250.4,51.7,253.2z"/>
	<path class="st0" d="M94.5,275.6c-0.2,0.3-0.8,0.6-1.7,0.7c-0.9,0.2-1.9,0.3-3.1,0.3c-1.1,0-2.3,0.1-3.3,0.1
		c-2.2,0-4.2-0.2-5.9-0.6c-1.7-0.4-3.2-1.1-4.4-2.1c-1.2-1-2.1-2.3-2.7-4.1c-0.6-1.7-0.9-3.9-0.9-6.5v-48.5H60.3
		c-1.6,0-2.3-0.7-2.3-2v-1.2c0-1.2,0.8-1.8,2.3-1.8h12.2v-12.7c0-0.7,0.2-1.2,0.6-1.7c0.4-0.4,0.9-0.7,1.5-0.7h1.4
		c0.7,0,1.1,0.2,1.5,0.7c0.3,0.5,0.5,1,0.5,1.7v12.7h14.6c1.6,0,2.3,0.6,2.3,1.8v1.2c0,1.3-0.8,2-2.3,2H77.9v48.5c0,3.7,0.7,6,2.2,7
		c1.5,1,3.6,1.5,6.3,1.5h5.9c1.7,0,2.6,0.6,2.6,1.7v0.7C94.9,274.8,94.7,275.2,94.5,275.6z"/>
	<path class="st0" d="M151.1,273.5c0,0.7-0.2,1.2-0.7,1.7s-1,0.7-1.7,0.7h-0.6c-0.6,0-1.2-0.2-1.7-0.7s-0.7-1.1-0.7-1.7v-3.1
		c-3,1.6-6.3,3.1-9.8,4.4c-3.5,1.3-7.2,1.9-11.1,1.9c-2.3,0-4.6-0.3-6.8-0.9c-2.3-0.6-4.3-1.7-6-3.2c-1.8-1.5-3.2-3.5-4.3-6.1
		c-1.1-2.5-1.7-5.7-1.7-9.6v-1.6c0-3.2,0.5-6,1.6-8.3c1.1-2.3,2.8-4.3,5.2-5.9c2.4-1.6,5.5-2.8,9.4-3.6c3.9-0.8,8.6-1.2,14.2-1.2
		h9.5v-4.4c0-3.2-0.2-5.9-0.7-8.2c-0.5-2.3-1.3-4.1-2.5-5.5c-1.2-1.4-2.8-2.5-4.8-3.1c-2-0.7-4.5-1-7.4-1c-2.1,0-3.8,0-5.4,0.1
		c-1.5,0-2.9,0.1-4.2,0.2c-1.3,0.1-2.6,0.2-3.8,0.4c-1.2,0.1-2.6,0.3-4.1,0.4c-0.7,0.1-1.3,0-1.9-0.2c-0.6-0.2-0.9-0.8-0.9-1.7v-0.7
		c0-0.8,0.2-1.4,0.7-1.6s1.2-0.4,2.1-0.6c1.3-0.2,2.6-0.3,3.8-0.4c1.2-0.1,2.5-0.2,3.8-0.4c1.4-0.1,2.8-0.2,4.4-0.2
		c1.6,0,3.4-0.1,5.5-0.1c4.2,0,7.6,0.6,10.3,1.7c2.7,1.1,4.8,2.7,6.4,4.7c1.6,2,2.7,4.4,3.3,7.2c0.6,2.8,0.9,5.8,0.9,9.1V273.5z
		 M145.8,241.1h-9.5c-4.7,0-8.6,0.2-11.7,0.7c-3.2,0.5-5.7,1.3-7.7,2.4c-2,1.1-3.4,2.6-4.2,4.4c-0.9,1.8-1.3,4-1.3,6.6v1.6
		c0,2.9,0.3,5.3,1,7.2c0.7,1.9,1.7,3.5,2.9,4.6c1.2,1.1,2.6,2,4.2,2.5s3.3,0.7,5.2,0.7c3.4,0,6.8-0.5,10-1.5c3.2-1,6.9-2.6,11-4.8
		V241.1z"/>
	<path class="st0" d="M209.4,275.4c-0.3,0.9-1,1.3-2.2,1.3c-0.7,0-1.4-0.1-1.9-0.2c-0.5-0.2-1.1-0.6-1.8-1.2l-29.8-31.9v31
		c0,0.7-0.2,1.2-0.7,1.7c-0.5,0.4-1,0.7-1.7,0.7h-0.7c-0.7,0-1.2-0.2-1.7-0.7c-0.5-0.5-0.7-1-0.7-1.7v-87.5c0-0.7,0.2-1.2,0.7-1.7
		c0.5-0.4,1-0.7,1.7-0.7h0.7c0.7,0,1.2,0.2,1.7,0.7c0.5,0.5,0.7,1,0.7,1.7v51.8l30.3-28.3c0.8-0.7,1.8-1.1,3-1.1
		c1.1,0,1.9,0.5,2.3,1.5c0.4,1,0.2,1.8-0.7,2.6l-30.1,27.6l30.3,32C209.5,273.7,209.7,274.5,209.4,275.4z"/>
	<path class="st0" d="M229.7,195.4c0,0.7-0.2,1.2-0.7,1.7c-0.5,0.5-1,0.7-1.7,0.7h-0.7c-0.7,0-1.2-0.2-1.7-0.7
		c-0.5-0.5-0.7-1-0.7-1.7v-9.1c0-0.7,0.2-1.2,0.7-1.7c0.4-0.5,1-0.7,1.7-0.7h0.7c0.7,0,1.2,0.2,1.7,0.7c0.4,0.5,0.7,1,0.7,1.7V195.4
		z M229.7,274.3c0,0.7-0.2,1.2-0.7,1.7c-0.5,0.4-1,0.7-1.7,0.7h-0.7c-0.7,0-1.2-0.2-1.7-0.7c-0.5-0.5-0.7-1-0.7-1.7v-62.1
		c0-0.7,0.2-1.2,0.7-1.7c0.4-0.4,1-0.7,1.7-0.7h0.7c0.7,0,1.2,0.2,1.7,0.7c0.4,0.5,0.7,1,0.7,1.7V274.3z"/>
	<path class="st0" d="M294.3,275.3c-0.5,0.5-1,0.7-1.7,0.7h-0.9c-0.7,0-1.2-0.2-1.6-0.7c-0.4-0.5-0.6-1-0.6-1.7v-40.8
		c0-3.5-0.4-6.5-1.3-8.9c-0.9-2.4-2.1-4.3-3.6-5.8c-1.5-1.5-3.3-2.5-5.3-3.1c-2-0.6-4.2-0.9-6.5-0.9c-3.1,0-6.4,0.5-9.7,1.4
		c-3.4,0.9-6.6,2.2-9.7,3.6v54.5c0,0.7-0.2,1.2-0.7,1.7c-0.5,0.5-1,0.7-1.7,0.7h-0.7c-0.7,0-1.2-0.2-1.7-0.7c-0.5-0.5-0.7-1-0.7-1.7
		v-61.3c0-0.7,0.2-1.2,0.6-1.7c0.4-0.5,0.9-0.7,1.6-0.7h1c0.7,0,1.2,0.2,1.6,0.7c0.4,0.5,0.6,1.1,0.6,1.7v2c3.2-1.6,6.5-2.8,9.9-3.7
		c3.4-0.9,6.7-1.4,9.9-1.4c3,0,5.7,0.4,8.4,1.3c2.6,0.9,4.9,2.2,6.9,4.1c2,1.8,3.5,4.3,4.7,7.3c1.1,3,1.7,6.6,1.7,10.9v40.8
		C295,274.3,294.8,274.8,294.3,275.3z"/>
	<path class="st0" d="M363.8,213.2c0,0.7-0.2,1.1-0.7,1.5c-0.5,0.3-1,0.5-1.7,0.5H355c0.6,0.5,1.3,1.1,2.1,2
		c0.8,0.8,1.6,1.8,2.2,3.1c0.7,1.2,1.2,2.7,1.7,4.4c0.5,1.7,0.7,3.6,0.7,5.8v1c0,2.8-0.4,5.4-1.3,7.9s-2.3,4.6-4.2,6.4
		c-2,1.8-4.6,3.2-7.8,4.2c-3.2,1-7.3,1.5-12.1,1.5c-3.2,0-5.9-0.2-8.2-0.7c-2.3-0.5-4.5-1.2-6.8-2.1c-1.3,0.6-2.3,1.3-3.1,2.2
		s-1.1,1.9-1.1,3.1c0,0.8,0.2,1.6,0.7,2.2c0.5,0.7,1.4,1.2,2.8,1.6l22.1,5.8c3.2,0.8,6,1.7,8.4,2.5c2.4,0.9,4.5,1.9,6.2,3.1
		c1.7,1.2,3,2.7,3.8,4.6c0.9,1.8,1.3,4,1.3,6.6v0.9c0,2.8-0.5,5.4-1.4,7.7c-0.9,2.3-2.4,4.3-4.4,6c-2.1,1.7-4.7,3-8.1,3.9
		c-3.3,0.9-7.4,1.4-12.2,1.4c-4.8,0-8.8-0.5-12.1-1.4c-3.3-0.9-6-2.3-8.1-3.9c-2.1-1.7-3.6-3.7-4.6-6c-0.9-2.3-1.4-4.9-1.4-7.7v-1.1
		c0-2.1,0.3-4.1,0.9-6c0.6-1.9,1.3-3.6,2.2-5.1c0.9-1.5,1.9-2.8,3-3.9c1.1-1.1,2.2-2,3.1-2.6l-0.9-0.2c-2.3-0.7-4-1.7-5-3.2
		c-1-1.5-1.5-3.2-1.5-5c0-1.5,0.4-3,1.2-4.4c0.8-1.5,2.1-2.6,3.9-3.4c-2.1-1.6-3.6-3.7-4.7-6.1c-1.1-2.4-1.7-5.3-1.7-8.5v-1
		c0-2.4,0.3-4.8,1-7.2c0.7-2.4,1.9-4.6,3.8-6.6c1.8-2,4.4-3.6,7.7-4.9c3.3-1.3,7.6-1.9,12.9-1.9h25.1c0.7,0,1.2,0.2,1.7,0.5
		c0.5,0.3,0.7,0.8,0.7,1.5V213.2z M357.1,280.4c0-1.7-0.2-3.2-0.7-4.4c-0.5-1.2-1.3-2.2-2.5-3.1c-1.2-0.9-2.8-1.7-4.8-2.4
		c-2-0.7-4.5-1.5-7.6-2.3l-17-4.4c-2.7,1.8-4.9,3.9-6.5,6.4c-1.6,2.5-2.5,5.8-2.5,10v1.1c0,2.2,0.3,4.2,1,6c0.7,1.8,1.8,3.3,3.4,4.6
		c1.6,1.2,3.7,2.2,6.4,2.9c2.7,0.7,6,1,9.9,1c4.1,0,7.5-0.3,10.1-1c2.7-0.7,4.8-1.6,6.3-2.8c1.6-1.2,2.6-2.7,3.3-4.6
		c0.6-1.8,0.9-3.9,0.9-6.2V280.4z M356.5,230.4c0-2.2-0.3-4.3-0.9-6.2c-0.6-1.9-1.7-3.6-3.2-5c-1.5-1.4-3.6-2.6-6.2-3.4
		c-2.6-0.8-5.9-1.2-9.9-1.2c-4.3,0-7.7,0.5-10.3,1.4c-2.6,0.9-4.6,2.1-6,3.6c-1.4,1.5-2.4,3.2-2.9,5.1c-0.5,1.9-0.7,3.8-0.7,5.8v1
		c0,1.6,0.2,3.2,0.7,5c0.5,1.8,1.5,3.5,2.9,5c1.4,1.5,3.5,2.8,6.1,3.8c2.6,1,6,1.5,10.2,1.5c4,0,7.3-0.4,10-1.2
		c2.6-0.8,4.7-1.9,6.2-3.3c1.5-1.4,2.6-3,3.1-4.9c0.6-1.8,0.9-3.8,0.9-6V230.4z"/>
	<path class="st0" d="M454.2,253.2c0,2.8-0.4,5.6-1.1,8.4c-0.7,2.8-2.2,5.3-4.3,7.6c-2.1,2.3-5,4.1-8.8,5.5
		c-3.7,1.4-8.6,2.1-14.5,2.1c-4,0-7.6-0.1-10.6-0.4c-3-0.2-5.5-0.5-7.4-0.8c-1.1-0.2-2-0.4-2.5-0.7c-0.5-0.3-0.8-0.9-0.8-1.8v-0.5
		c0-1,0.3-1.6,0.9-1.8c0.6-0.2,1.3-0.3,1.9-0.2c1,0.2,2.2,0.3,3.6,0.4c1.4,0.1,2.9,0.2,4.6,0.4s3.4,0.2,5.1,0.3
		c1.8,0.1,3.5,0.1,5.2,0.1c4.7,0,8.5-0.5,11.5-1.4c3-0.9,5.3-2.3,7-3.9c1.7-1.7,2.9-3.6,3.5-5.9c0.7-2.2,1-4.6,1-7.1
		c0-2.3-0.3-4.3-1-5.9c-0.7-1.6-1.8-3.2-3.3-4.7c-1.5-1.5-3.5-3.1-5.8-4.6c-2.4-1.6-5.3-3.4-8.7-5.5l-7.7-4.8
		c-2.8-1.7-5.4-3.4-7.8-5.1c-2.4-1.6-4.4-3.4-6.2-5.4c-1.7-1.9-3.1-4-4-6.3c-0.9-2.3-1.4-4.9-1.4-7.9c0-3.8,0.8-6.9,2.5-9.4
		c1.6-2.5,3.8-4.4,6.5-5.9c2.7-1.4,5.8-2.4,9.2-3c3.4-0.6,7-0.9,10.6-0.9c1.3,0,2.8,0,4.4,0.1c1.6,0.1,3.2,0.2,4.8,0.2
		c1.6,0.1,3.1,0.2,4.5,0.4c1.4,0.2,2.5,0.3,3.4,0.4c1.2,0.2,2.1,0.4,2.6,0.7c0.5,0.3,0.7,0.9,0.7,1.7v0.6c0,0.9-0.3,1.5-1,1.8
		c-0.7,0.3-1.6,0.3-2.8,0.2c-0.2,0-1-0.1-2.3-0.2c-1.3-0.1-2.8-0.2-4.5-0.4c-1.7-0.1-3.4-0.2-5.2-0.3c-1.8-0.1-3.4-0.1-4.7-0.1
		c-8.2,0-14.2,1.2-17.8,3.5s-5.4,5.8-5.4,10.4c0,2.2,0.3,4.2,1,5.9c0.7,1.7,1.7,3.3,3.1,4.8c1.4,1.5,3.1,3,5.2,4.5
		c2.1,1.5,4.5,3,7.2,4.7l7.9,4.8c3.6,2.2,6.8,4.3,9.5,6.1c2.7,1.8,5,3.8,6.8,5.7c1.8,2,3.2,4.1,4.1,6.3
		C453.7,247.9,454.2,250.4,454.2,253.2z"/>
	<path class="st0" d="M517,241.9c0,0.7-0.2,1.2-0.7,1.7c-0.5,0.5-1,0.7-1.7,0.7h-41.6v2.6c0,5.2,0.6,9.4,1.7,12.7
		c1.1,3.3,2.7,5.8,4.8,7.7c2,1.8,4.4,3.1,7.1,3.8c2.7,0.7,5.6,1,8.7,1c2.7,0,5.7-0.2,8.9-0.6s6.3-0.9,9.3-1.5
		c0.7-0.2,1.2-0.1,1.8,0.1c0.5,0.2,0.8,0.7,0.8,1.5v0.9c0,0.7-0.2,1.2-0.5,1.5c-0.3,0.4-0.9,0.6-1.8,0.8c-3,0.7-6.1,1.2-9.3,1.5
		c-3.3,0.4-6.3,0.6-9.1,0.6c-3.9,0-7.4-0.5-10.8-1.4s-6.3-2.5-8.8-4.8c-2.5-2.3-4.5-5.3-6-9.2c-1.4-3.9-2.2-8.7-2.2-14.5v-8.1
		c0-4.3,0.5-8.2,1.6-11.7c1.1-3.6,2.6-6.7,4.7-9.3c2.1-2.6,4.7-4.7,7.8-6.2s6.7-2.2,10.8-2.2c4.3,0,7.9,0.7,11,2.1
		c3.1,1.4,5.6,3.4,7.6,6c2,2.6,3.5,5.7,4.4,9.3c0.9,3.6,1.4,7.6,1.4,11.9V241.9z M511.6,238.4c0-7.8-1.4-13.8-4.3-18
		c-2.9-4.2-7.8-6.4-14.8-6.4c-3.4,0-6.4,0.6-8.8,1.8c-2.4,1.2-4.4,2.9-6,5c-1.6,2.2-2.8,4.7-3.5,7.7c-0.7,3-1.1,6.3-1.1,10v0.6h38.5
		V238.4z"/>
	<path class="st0" d="M557.3,213.7c-0.6,0.2-1.4,0.4-2.4,0.4c-2.4,0-4.9,0.4-7.6,1.1c-2.7,0.7-5.8,2.3-9.5,4.6v53.9
		c0,0.7-0.2,1.2-0.7,1.7c-0.5,0.5-1,0.7-1.7,0.7h-0.7c-0.7,0-1.2-0.2-1.7-0.7c-0.5-0.5-0.7-1-0.7-1.7v-61.3c0-0.7,0.2-1.2,0.6-1.7
		c0.4-0.5,0.9-0.7,1.6-0.7h1c0.7,0,1.2,0.2,1.6,0.7c0.4,0.5,0.6,1.1,0.6,1.7v2.6c3.1-2,6-3.5,8.6-4.4c2.6-0.9,5.5-1.3,8.5-1.3
		c1,0,1.8,0.1,2.4,0.4c0.6,0.2,0.9,0.7,0.9,1.5v1C558.2,212.9,557.9,213.5,557.3,213.7z"/>
	<path class="st0" d="M599.8,268.9c-0.9,3.3-2.1,5.4-3.5,6.3c-1.4,0.9-3.1,1.4-4.9,1.4c-1.7,0-3.4-0.5-4.9-1.4
		c-1.6-0.9-2.8-3.1-3.7-6.3l-16.1-56c-0.2-0.9-0.2-1.6,0.1-2.2c0.3-0.6,0.9-0.9,1.7-0.9h1.2c0.4,0,0.8,0.1,1.2,0.4
		c0.4,0.3,0.7,0.9,1,1.8l15.7,55.5c0.6,1.9,1.2,3.1,1.8,3.6c0.6,0.5,1.3,0.8,1.9,0.8c0.7,0,1.2-0.3,1.8-0.8c0.5-0.5,1.1-1.7,1.7-3.6
		l15.7-55.5c0.2-0.9,0.6-1.5,1-1.8c0.4-0.3,0.8-0.4,1.2-0.4h1.5c0.8,0,1.4,0.3,1.6,0.9c0.2,0.6,0.2,1.3,0,2.2L599.8,268.9z"/>
	<path class="st0" d="M636.1,195.4c0,0.7-0.2,1.2-0.7,1.7c-0.5,0.5-1,0.7-1.7,0.7H633c-0.7,0-1.2-0.2-1.7-0.7
		c-0.5-0.5-0.7-1-0.7-1.7v-9.1c0-0.7,0.2-1.2,0.7-1.7c0.5-0.5,1-0.7,1.7-0.7h0.7c0.7,0,1.2,0.2,1.7,0.7c0.4,0.5,0.7,1,0.7,1.7V195.4
		z M636.1,274.3c0,0.7-0.2,1.2-0.7,1.7c-0.5,0.4-1,0.7-1.7,0.7H633c-0.7,0-1.2-0.2-1.7-0.7c-0.5-0.5-0.7-1-0.7-1.7v-62.1
		c0-0.7,0.2-1.2,0.7-1.7c0.5-0.4,1-0.7,1.7-0.7h0.7c0.7,0,1.2,0.2,1.7,0.7c0.4,0.5,0.7,1,0.7,1.7V274.3z"/>
	<path class="st0" d="M693.8,274.8c-0.3,0.3-0.9,0.6-1.8,0.7c-2.6,0.3-5.3,0.6-7.9,0.8c-2.7,0.2-5,0.3-7,0.3
		c-4.4,0-8.2-0.8-11.3-2.4c-3.1-1.6-5.6-3.8-7.5-6.5c-1.9-2.7-3.3-5.9-4.2-9.5c-0.9-3.6-1.4-7.4-1.4-11.4v-8.2
		c0-4.1,0.5-7.9,1.4-11.5c0.9-3.6,2.3-6.7,4.2-9.3c1.9-2.7,4.4-4.8,7.5-6.3c3.1-1.5,6.8-2.3,11.3-2.3c2,0,4.3,0.1,7,0.3
		c2.7,0.2,5.3,0.5,7.9,0.8c0.9,0.2,1.5,0.4,1.8,0.7c0.3,0.3,0.5,0.8,0.5,1.5v0.9c0,0.7-0.2,1.1-0.7,1.5c-0.5,0.3-1.1,0.4-1.8,0.2
		c-5.8-0.7-10.7-1.1-14.6-1.1c-3.5,0-6.5,0.6-8.9,1.7c-2.4,1.1-4.4,2.8-5.8,5c-1.5,2.2-2.5,4.8-3.2,7.8c-0.7,3-1,6.4-1,10.1v8.2
		c0,3.7,0.3,7.1,1,10.1c0.7,3.1,1.7,5.7,3.2,7.9c1.5,2.2,3.4,3.9,5.8,5.1c2.4,1.2,5.4,1.8,8.9,1.8c3.9,0,8.8-0.4,14.6-1.1
		c0.7-0.2,1.4-0.1,1.8,0.2c0.5,0.3,0.7,0.8,0.7,1.5v0.9C694.3,274,694.1,274.5,693.8,274.8z"/>
	<path class="st0" d="M755.8,241.9c0,0.7-0.2,1.2-0.7,1.7c-0.5,0.5-1,0.7-1.7,0.7h-41.6v2.6c0,5.2,0.6,9.4,1.7,12.7
		c1.1,3.3,2.7,5.8,4.8,7.7c2,1.8,4.4,3.1,7.1,3.8c2.7,0.7,5.6,1,8.7,1c2.7,0,5.7-0.2,8.9-0.6s6.3-0.9,9.3-1.5
		c0.7-0.2,1.2-0.1,1.8,0.1c0.5,0.2,0.8,0.7,0.8,1.5v0.9c0,0.7-0.2,1.2-0.5,1.5c-0.3,0.4-0.9,0.6-1.8,0.8c-3,0.7-6.1,1.2-9.3,1.5
		c-3.3,0.4-6.3,0.6-9.1,0.6c-3.9,0-7.4-0.5-10.8-1.4s-6.3-2.5-8.8-4.8c-2.5-2.3-4.5-5.3-6-9.2c-1.4-3.9-2.2-8.7-2.2-14.5v-8.1
		c0-4.3,0.5-8.2,1.6-11.7c1.1-3.6,2.6-6.7,4.7-9.3c2.1-2.6,4.7-4.7,7.8-6.2s6.7-2.2,10.8-2.2c4.3,0,7.9,0.7,11,2.1
		c3.1,1.4,5.6,3.4,7.6,6c2,2.6,3.5,5.7,4.4,9.3c0.9,3.6,1.4,7.6,1.4,11.9V241.9z M750.4,238.4c0-7.8-1.4-13.8-4.3-18
		c-2.9-4.2-7.8-6.4-14.8-6.4c-3.4,0-6.4,0.6-8.8,1.8c-2.4,1.2-4.4,2.9-6,5c-1.6,2.2-2.8,4.7-3.5,7.7c-0.7,3-1.1,6.3-1.1,10v0.6h38.5
		V238.4z"/>
	<path class="st0" d="M810.5,259.6c0,3.3-0.6,6-1.7,8.2c-1.1,2.2-2.7,4-4.6,5.3c-1.9,1.3-4.2,2.2-6.8,2.8s-5.3,0.8-8.2,0.8
		c-1.4,0-2.9,0-4.5-0.1c-1.6-0.1-3.2-0.2-4.8-0.4c-1.6-0.2-3.2-0.3-4.7-0.6c-1.5-0.2-2.8-0.4-3.9-0.7c-0.9-0.2-1.6-0.4-2-0.6
		c-0.5-0.2-0.7-0.7-0.7-1.4v-1.4c0-0.7,0.3-1.2,0.8-1.5c0.5-0.3,1.2-0.3,1.9-0.2c3,0.5,6.1,0.9,9.3,1.4c3.3,0.4,6.2,0.6,8.7,0.6
		c2.2,0,4.3-0.2,6.2-0.5c1.9-0.3,3.5-1,5-1.9c1.4-0.9,2.5-2.2,3.3-3.8c0.8-1.6,1.2-3.6,1.2-6.1c0-1.2-0.2-2.4-0.6-3.4
		c-0.4-1-1.1-2-2.1-3.1c-1-1-2.3-2.1-4-3.2c-1.7-1.1-3.8-2.4-6.3-3.8l-7.9-4.3c-2.3-1.2-4.4-2.4-6.2-3.6c-1.8-1.2-3.4-2.5-4.7-3.8
		c-1.3-1.4-2.3-2.8-3-4.4c-0.7-1.6-1-3.5-1-5.6c0-2.9,0.5-5.3,1.6-7.2c1.1-1.9,2.5-3.5,4.2-4.7c1.7-1.2,3.7-2,6-2.5
		c2.3-0.5,4.6-0.7,7.1-0.7c4.4,0,7.9,0.1,10.5,0.4c2.6,0.2,4.9,0.5,7.1,0.7c0.9,0.2,1.6,0.3,2,0.6c0.4,0.2,0.6,0.7,0.6,1.5v1
		c0,1-0.2,1.6-0.6,1.8c-0.4,0.2-1.1,0.3-2,0.1c-1.6-0.2-4-0.4-7.2-0.8c-3.2-0.4-6.5-0.6-9.9-0.6c-2,0-3.8,0.1-5.5,0.4
		c-1.7,0.2-3.2,0.7-4.4,1.5c-1.3,0.7-2.3,1.8-3,3.1c-0.7,1.4-1,3.1-1,5.4c0,2.7,1,5,3.1,6.8c2.1,1.8,5,3.8,8.8,6l8.2,4.6
		c2.5,1.4,4.8,2.7,6.8,4c2,1.3,3.6,2.6,4.9,4c1.3,1.4,2.3,2.9,3,4.4C810.2,255.7,810.5,257.5,810.5,259.6z"/>
</g>
<path class="st0" d="M53.9,146H25.3v-0.9c0-9.1,2.6-16.8,7.8-23.2c5.2-6.4,13-13,23.5-19.9l19.8-13.2c9.1-6.2,16-12.5,20.6-19.1
	c4.6-6.5,6.9-14.4,6.9-23.7c0-13.7-4.2-23.8-12.7-30.4C82.8,9,69,5.7,49.8,5.7c-3.5,0-7.3,0.1-11.3,0.4c-4,0.3-8,0.7-11.9,1.2
	c-3.9,0.5-7.7,1.1-11.3,1.8c-3.7,0.7-6.9,1.4-9.7,2.1c-1.2,0.3-2.2,0.8-3,1.4c-0.8,0.7-1.2,1.6-1.2,2.8v13.2c0,1.2,0.4,2.2,1.1,3.1
	C3.2,32.5,4.1,33,5.3,33h0.4c3.2-0.4,6.8-0.8,10.6-1.2c3.8-0.4,7.7-0.7,11.6-1c3.9-0.3,7.7-0.6,11.5-0.8c3.7-0.2,7.2-0.3,10.5-0.3
	c9.3,0,15.9,1.2,19.8,3.6c4,2.4,5.9,6.6,5.9,12.7c0,3.1-0.3,5.7-0.8,7.8c-0.5,2.1-1.5,4.1-3,5.9c-1.5,1.8-3.5,3.8-6.2,5.8
	c-2.6,2.1-6.1,4.5-10.4,7.3L33.5,87.4c-4.6,3.1-8.8,6.7-12.9,10.8c-4,4.1-7.6,8.6-10.7,13.5c-3.1,4.9-5.5,10.2-7.3,15.9
	C0.9,133.2,0,139.1,0,145.1v21.6c0,1.2,0.4,2.2,1.3,3.1c0.9,0.9,1.9,1.3,3.1,1.3h84.8c0-8.6,0-16.3,0-25.1H53.9z"/>
<path class="st0" d="M187.5,96.9c-0.5,0.6-1.1,0.8-1.8,0.8h-11.8c-0.7,0-1.3-0.3-1.8-0.8c-0.5-0.6-0.8-1.2-0.8-1.9V53.2
	c0-2.8-0.1-5.2-0.3-7c-0.2-1.8-0.7-3.3-1.4-4.4c-0.7-1.1-1.8-1.8-3.3-2.3c-1.5-0.5-3.4-0.7-5.9-0.7c-2.2,0-4.5,0.4-6.9,1.2
	c-2.4,0.8-4.9,1.9-7.6,3.4V95c0,0.7-0.3,1.3-0.8,1.9c-0.5,0.6-1.1,0.8-1.8,0.8h-11.8c-0.7,0-1.3-0.3-1.8-0.8
	c-0.5-0.6-0.8-1.2-0.8-1.9V27.9c0-0.7,0.3-1.3,0.8-1.8c0.5-0.5,1.1-0.8,1.8-0.8h11.2c0.7,0,1.3,0.3,1.8,0.8c0.5,0.5,0.8,1.1,0.8,1.8
	v2.7c1.9-1.2,3.6-2.2,5.2-3c1.6-0.8,3.2-1.4,4.8-1.9c1.6-0.5,3.3-0.8,5-1c1.7-0.2,3.6-0.3,5.8-0.3c4.6,0,8.4,0.7,11.3,2.2
	c2.9,1.5,5.2,3.5,6.7,6c1.6,2.6,2.7,5.6,3.3,9.1c0.6,3.5,0.9,7.3,0.9,11.4V95C188.2,95.7,188,96.3,187.5,96.9z"/>
<path class="st0" d="M262.3,91.9c0,0.9-0.2,1.6-0.6,2.1c-0.4,0.5-1.4,0.9-2.8,1.3c-4,1-8.3,1.8-12.8,2.4c-4.5,0.6-8.9,0.9-13,0.9
	c-10.4,0-18.1-2.8-23.1-8.5c-5.1-5.7-7.6-13.6-7.6-23.7v-9.9c0-10.1,2.5-18,7.6-23.7c5.1-5.7,12.8-8.5,23.1-8.5
	c1.5,0,3.4,0.1,5.5,0.2c2.1,0.1,4.4,0.4,6.8,0.7V2.6c0-0.7,0.3-1.3,0.8-1.8c0.5-0.5,1.1-0.8,1.8-0.8h11.8c0.7,0,1.3,0.3,1.8,0.8
	c0.5,0.5,0.8,1.1,0.8,1.8V91.9z M245.4,39.3c-1.8-0.3-3.9-0.5-6.4-0.6c-2.4-0.2-4.4-0.3-6-0.3c-2.7,0-5,0.5-6.8,1.4
	c-1.8,0.9-3.2,2.2-4.2,3.8c-1,1.6-1.7,3.5-2.1,5.7c-0.4,2.2-0.6,4.6-0.6,7.3v9.8c0,2.6,0.2,5.1,0.6,7.3c0.4,2.2,1.1,4.1,2.1,5.7
	c1,1.6,2.4,2.9,4.2,3.8c1.8,0.9,4.1,1.4,6.8,1.4c2.3,0,4.6-0.1,7-0.3c2.4-0.2,4.1-0.4,5.3-0.6V39.3z"/>
<g>
	<g>
		<linearGradient id="SVGID_1_" gradientUnits="userSpaceOnUse" x1="24.9881" y1="158.4866" x2="810.5283" y2="158.4866">
			<stop  offset="0" style="stop-color:#296294"/>
			<stop  offset="0.5" style="stop-color:#2C77B4"/>
			<stop  offset="1" style="stop-color:#274B71"/>
		</linearGradient>
		<path class="st1" d="M806.2,147c-2.9-0.7-6.3-1.1-10.2-1.1h-28.5H25v25.2h742.5c0,0,0,0,0,0h28.5c3.9,0,7.3-0.4,10.2-1.3
			c2.9-0.9,4.4-1.9,4.4-3.1v-16.8C810.5,148.7,809.1,147.7,806.2,147z"/>
	</g>
</g>
<g>
	<path class="st0" d="M365.2,106.8c-0.4,0.4-1.1,0.6-2.1,0.8c-1,0.3-2.5,0.5-4.3,0.8c-1.9,0.2-3.9,0.4-6.1,0.6
		c-2.2,0.2-4.5,0.3-6.8,0.4c-2.3,0.1-4.4,0.1-6.2,0.1c-4.5,0-8.7-0.4-12.6-1.1s-7.2-2.1-10.1-4.2c-2.9-2.1-5.1-4.9-6.8-8.6
		c-1.7-3.7-2.5-8.5-2.5-14.3V8.8c0-0.7,0.3-1.4,0.8-1.9s1.2-0.8,1.9-0.8h13.7c0.7,0,1.4,0.3,1.9,0.8s0.8,1.2,0.8,1.9v72.6
		c0,4.6,0.8,7.7,2.3,9.4c1.6,1.7,4.4,2.5,8.4,2.5H363c0.7,0,1.4,0.3,1.9,0.8s0.8,1.2,0.8,1.9v8.8
		C365.8,105.8,365.6,106.5,365.2,106.8z"/>
	<path class="st0" d="M435.2,105.7c0,0.7-0.3,1.4-0.8,1.9c-0.6,0.6-1.2,0.8-1.9,0.8h-11.7c-0.7,0-1.4-0.3-1.9-0.8s-0.8-1.2-0.8-1.9
		v-2.2c-3.2,1.9-6.4,3.4-9.7,4.5c-3.2,1.1-6.5,1.6-9.8,1.6c-2.9,0-5.7-0.3-8.6-1c-2.9-0.6-5.4-1.8-7.7-3.6c-2.3-1.7-4.1-4.1-5.5-7
		c-1.4-2.9-2.1-6.8-2.1-11.4V86c0-4,0.6-7.4,1.9-10.3c1.2-2.9,3.2-5.4,5.9-7.4c2.7-2,6.2-3.5,10.5-4.6c4.3-1,9.4-1.5,15.4-1.5h8.7
		V56c0-4.5-1-7.6-3-9c-2-1.5-5-2.2-9.2-2.2c-4.4,0-8.7,0.1-12.8,0.3c-4.1,0.2-7.4,0.5-9.7,0.8h-0.7c-0.7,0-1.3-0.1-1.8-0.4
		c-0.5-0.3-0.7-0.9-0.7-1.9v-8.7c0-1.5,0.9-2.5,2.6-2.9c2.8-0.5,6.1-1,10-1.5c3.9-0.5,8.3-0.7,13-0.7c9.8,0,17.4,2.2,22.6,6.5
		c5.2,4.3,7.8,10.9,7.8,19.9V105.7z M417,74.3h-8.7c-3.1,0-5.7,0.3-7.7,0.8c-2,0.5-3.6,1.2-4.7,2.2c-1.2,1-1.9,2.2-2.4,3.7
		c-0.4,1.5-0.6,3.2-0.6,5.1v0.6c0,3.4,0.8,5.7,2.4,6.8c1.6,1.2,4.1,1.7,7.6,1.7c2.5,0,5-0.4,7.4-1.1c2.5-0.7,4.7-1.7,6.7-2.8V74.3z"
		/>
	<path class="st0" d="M514.5,33c0,0.4,0,0.6-0.1,0.8l-23,80.6c-1.1,3.8-2.3,7-3.6,9.7c-1.3,2.7-3,5-5,6.8c-2.1,1.8-4.7,3.1-7.8,3.9
		c-3.1,0.8-7,1.2-11.7,1.2c-1.1,0-2.3,0-3.7-0.1c-1.4-0.1-2.7-0.2-4.1-0.4c-1.3-0.2-2.6-0.4-3.8-0.6c-1.2-0.2-2.2-0.4-3-0.7
		c-0.7-0.2-1.4-0.4-2-0.8c-0.6-0.3-0.9-0.9-0.9-1.6v-8.8c0-0.7,0.3-1.3,0.8-1.8c0.6-0.5,1.2-0.7,1.9-0.7h0.3c0.9,0,2.1,0,3.5,0.1
		c1.4,0.1,2.8,0.2,4.3,0.3c1.4,0.1,2.8,0.2,4.2,0.3c1.4,0.1,2.6,0.1,3.6,0.1c2.9,0,5.2-0.6,6.9-1.7c1.7-1.2,3-3.5,4-7.1l1.1-4.1
		h-2.1c-1,0-2.1-0.1-3.2-0.3c-1.1-0.2-2.2-0.7-3.2-1.4c-1.1-0.7-2.1-1.9-3-3.4c-1-1.5-1.8-3.6-2.6-6.3l-18.1-63.2
		c-0.1-0.3-0.1-0.6-0.1-1c0-1.5,0.9-2.2,2.6-2.2h13.9c0.6,0,1.2,0.3,1.7,0.8c0.5,0.5,0.8,1.1,1,1.7l13.9,56.1c0.3,1.2,0.6,2,0.8,2.4
		c0.3,0.4,0.6,0.6,1.1,0.6h0.1h0.7h0.4L495.2,33c0.2-0.6,0.5-1.2,1-1.7c0.5-0.5,1.1-0.7,1.8-0.7H512c0.7,0,1.3,0.2,1.8,0.7
		C514.3,31.9,514.5,32.4,514.5,33z"/>
	<path class="st0" d="M587.6,72.5c0,2.3-0.9,3.4-2.8,3.4h-45v0.4c0,2,0.2,4.1,0.7,6.1c0.5,2.1,1.3,4,2.6,5.7
		c1.2,1.7,2.9,3.1,5.1,4.1c2.2,1.1,4.9,1.6,8.2,1.6c5.1,0,9.8-0.2,14.3-0.5c4.5-0.3,8.2-0.6,11.1-0.9h0.4c0.7,0,1.3,0.2,1.8,0.5
		c0.5,0.3,0.7,0.9,0.7,1.6v9.1c0,1.1-0.2,1.9-0.5,2.5c-0.3,0.6-1.1,0.9-2.4,1.1c-2.2,0.5-4.3,0.8-6.2,1.1c-1.9,0.3-3.9,0.5-5.9,0.7
		c-2,0.2-4.1,0.3-6.5,0.4c-2.3,0.1-5.1,0.1-8.2,0.1c-3.5,0-7.2-0.5-11.1-1.6c-3.9-1.1-7.5-2.9-10.8-5.5c-3.3-2.6-6-6.2-8.1-10.6
		c-2.1-4.5-3.2-10.1-3.2-16.9V64.8c0-5.3,0.7-10.2,2.2-14.5c1.5-4.3,3.6-8,6.4-11c2.8-3,6.3-5.4,10.4-7c4.1-1.7,8.8-2.5,14-2.5
		c5.3,0,10,0.9,14.1,2.6c4.1,1.7,7.5,4.1,10.3,7.2c2.8,3.1,4.8,6.8,6.3,11.1c1.4,4.3,2.1,9,2.1,14.1V72.5z M569.4,62.4
		c0-5.4-1.3-9.6-4-12.6c-2.7-2.9-6.2-4.4-10.5-4.4c-4.3,0-7.9,1.4-10.7,4.3s-4.2,7.1-4.2,12.6V63h29.4V62.4z"/>
	<path class="st0" d="M642.5,44.4c-0.6,0.6-1.2,0.8-1.9,0.8c-3.8,0-7.2,0.4-10.1,1.3c-3,0.9-6,2.1-8.9,3.7v55.4c0,0.7-0.3,1.4-0.8,2
		c-0.6,0.6-1.2,0.9-1.9,0.9h-12.7c-0.7,0-1.4-0.3-1.9-0.9c-0.6-0.6-0.8-1.3-0.8-2V33.5c0-0.7,0.3-1.4,0.8-1.9s1.2-0.8,1.9-0.8h12
		c0.7,0,1.4,0.3,1.9,0.8s0.8,1.2,0.8,1.9v2.9c3.4-2.7,6.8-4.4,10.3-5.3c3.5-0.9,6.6-1.3,9.4-1.3c0.7,0,1.4,0.3,1.9,0.8
		c0.6,0.6,0.8,1.2,0.8,1.9v9.9C643.3,43.2,643,43.8,642.5,44.4z"/>
</g>
<circle class="st0" cx="728.1" cy="69.1" r="39.4"/>
<g>
	<g>
		<path class="st2" d="M728.1,52.4c0.2,0.2,0.4,0.3,0.6,0.3c0.5,0,0.9-0.4,0.9-0.9c0,0,0-0.1,0-0.1l3.1-2.8c0.2-0.2,0.2-0.4,0-0.6
			c-0.2-0.2-0.4-0.2-0.6,0l-3,2.8c-0.1,0-0.1,0-0.1,0c-0.1,0-0.2-0.1-0.3-0.1c-0.2,0-0.4,0.1-0.5,0.2c0,0-0.1,0.1-0.1,0l-2.1-0.9
			c-0.3-0.1-0.6,0-0.7,0.3c-0.1,0.3,0,0.6,0.3,0.7L728.1,52.4C728.1,52.3,728.1,52.3,728.1,52.4z"/>
		<path class="st2" d="M728.7,44.3c-4.1,0-7.4,3.3-7.4,7.4c0,4.1,3.3,7.4,7.4,7.4c4.1,0,7.4-3.3,7.4-7.4
			C736.2,47.6,732.8,44.3,728.7,44.3z M722.9,52.5h0.3c0.4,0,0.8-0.4,0.8-0.8c0-0.4-0.4-0.8-0.8-0.8h-0.3c0.4-2.6,2.4-4.7,5.1-5.1
			v0.3c0,0.4,0.4,0.8,0.8,0.8c0.4,0,0.8-0.4,0.8-0.8v-0.3c2.6,0.4,4.7,2.4,5.1,5.1h-0.3c-0.4,0-0.8,0.4-0.8,0.8
			c0,0.4,0.4,0.8,0.8,0.8l0.3,0c-0.4,2.6-2.4,4.7-5.1,5.1v-0.3c0-0.4-0.4-0.8-0.8-0.8c-0.4,0-0.8,0.4-0.8,0.8v0.3
			C725.3,57.2,723.2,55.2,722.9,52.5z"/>
	</g>
	<path class="st3" d="M757.8,64.6c-0.3-0.1-0.6,0.1-0.7,0.4c-0.1,0.3,0.1,0.6,0.4,0.7c0,0,4.1,1.3,4.1,4.9c0,1.7-0.4,2.9-1.2,3.5
		c-0.1-2.1-1.2-4.2-2.7-4.8c-0.9-0.4-1.8-0.1-2.6,0.7c-1,1-1.1,2.2-0.4,3.4c0.8,1.3,2.6,2.4,4.4,2.3c-0.2,0.8-0.8,1.6-1.8,2
		c-1.2,0.5-2.3,0.5-3.2,0.1c-0.8-0.4-1.4-1.2-1.8-1.8c0-0.3,0-0.5,0-0.8c0,0.1,0,0.1-0.1,0.2c0.1-3.9-1.4-7-2.8-9
		c0,0-0.1-0.1-0.1-0.1c-0.1-0.1-0.2-0.2-0.2-0.3c-1.1-1.5-2.1-2.3-2.1-2.3c-3.1-3-7.4-5.2-12.3-6.2c-0.6,0.7-1.3,1.2-2.1,1.7
		c-0.1,0.1-0.3,0.2-0.4,0.3c1,0.1,1.9,0.2,2.9,0.4l-0.1,0.9c-3.5-0.7-9.2-0.7-13.1,0l-0.1-0.9c1.1-0.2,2.3-0.3,3.4-0.4
		c-0.3-0.2-0.5-0.3-0.8-0.5c-0.6-0.4-1.2-0.9-1.7-1.5c-3.2,0.6-6.2,1.7-8.8,3.1c-1.5,0.8-3.1,1.2-4.8,0.9c-1.2-0.1-2.5-0.2-4-0.2
		l2.1,5.3c-1.4,2-2.4,4.2-2.7,6.6c-0.2,1.2-1.2,2.1-2.5,2.1v7.3c2.4,0,4.8,1.1,6.4,2.9c0.9,1,2,2,3.1,2.9c0.9,0.6,1.2,1.8,1,2.8
		l-1.1,4.1c-0.3,1,0.5,2,1.5,2h3.1c0.7,0,1.3-0.5,1.5-1.2l0.4-1.4c0.4-1.4,1.8-2.2,3.1-1.9c2.3,0.6,4.7,0.9,7.3,0.9
		c2.5,0,5-0.3,7.3-0.9c1.4-0.3,2.8,0.5,3.2,1.9l0.4,1.4c0.2,0.7,0.8,1.2,1.5,1.2h3.1c1,0,1.8-1,1.5-2l-1.1-4.1c-0.3-1,0.1-2.1,1-2.8
		c1.9-1.4,3.5-3.1,4.7-4.9c0,0,0,0,0,0c1.1-1.7,1.9-3.5,2.2-5.5c0.4,0.5,0.9,0.9,1.5,1.2c0.6,0.3,1.2,0.4,1.9,0.4
		c0.7,0,1.4-0.2,2.2-0.5c1.4-0.6,2.3-1.8,2.6-3.3c1-0.4,2.4-1.6,2.4-4.8C762.7,66.1,758,64.6,757.8,64.6z M710.7,72.1
		c-0.5,0-0.9-0.4-0.9-0.9s0.4-0.9,0.9-0.9c0.5,0,0.9,0.4,0.9,0.9S711.2,72.1,710.7,72.1z M759.3,74.5c-1.4,0.2-3-0.7-3.6-1.8
		c-0.4-0.7-0.4-1.4,0.2-2c0.3-0.3,0.6-0.5,1-0.5c0.1,0,0.3,0,0.4,0.1c1.1,0.4,2,2.3,2,4C759.3,74.3,759.3,74.4,759.3,74.5z"/>
</g>
</svg>
